# xmcd CD database file
# Copyright (C) 1997 Ti Kan
# 
# Track frame offsets:
#     150
#     15030
#     27312
#     38025
#     50575
#     65562
#     80910
#     93410
#     105335
#     116480
#     127810
#     140037
#     151967
#     162632
#     172222
# 
# Disc length: 2464 seconds
# 
# Revision: 1
# Processed by: cddbd v1.4b41PL1 Copyright (c) Steve Scherf et al.
# Submitted via: DiscPlay 4.0.3
# 
DISCID=c4099e0f
DTITLE=Various Artist - Crooners
DYEAR=1900
DGENRE=
TTITLE0=Drink, Drink, Drink
TTITLE1=I love You Because
TTITLE2=The Glory Of Love
TTITLE3=My Cup Runneth Over
TTITLE4=And I Love You So
TTITLE5=For Once In My Life
TTITLE6=Days of Wine And Roses
TTITLE7=I Want To Go With You
TTITLE8=When I Fall In Love
TTITLE9=Hold Me, Thrill Me, Kiss Me
TTITLE10=All Alone Am I
TTITLE11=Come Back To Me
TTITLE12=Have You Looked Into Your Heart
TTITLE13=Big Spender
TTITLE14=Blue Velvet
EXTD=
EXTT0=
EXTT1=
EXTT2=
EXTT3=
EXTT4=
EXTT5=
EXTT6=
EXTT7=
EXTT8=
EXTT9=
EXTT10=
EXTT11=
EXTT12=
EXTT13=
EXTT14=
PLAYORDER=
